<svg width="129" height="44" viewBox="0 0 129 44" fill="none" xmlns="http://www.w3.org/2000/svg">
    <path fill-rule="evenodd" clip-rule="evenodd" d="M29.1172 19.9641H29.8813H30.1706L30.2754 20.2343L34.2284 30.4548H38.2788V1.65437H30.3289V16.4478V16.8697H29.9053H29.0929H28.6693V16.4478V1.65437H1.65915V21.0901H5.74022V4.96301V4.54029H6.1638H6.3788H6.59381L6.7213 4.71687L14.3829 15.3449L22.0222 4.71687L22.149 4.54029H22.3667H22.5577H22.9809V4.96301V24.6246V25.0466H22.5577H21.7213H21.2978V24.6246V8.63598L14.8244 17.6477L14.6973 17.8239H14.4802H14.2889H14.0739L13.9464 17.6477L7.4237 8.6268V21.0901H12.138C13.8045 21.0901 15.2976 21.6571 16.3645 22.6514C17.4012 23.6174 18.0337 24.9799 18.0337 26.6115C18.0337 27.8753 17.6632 28.9815 17.0152 29.8652C16.4412 30.6469 15.6522 31.2506 14.7111 31.6304L18.3126 37.9868L18.6682 38.6147H17.9451H16.9892H16.7445L16.6221 38.3984L13.0338 32.0686C12.9402 32.0805 12.8444 32.0908 12.7482 32.1C12.5389 32.1198 12.3327 32.1334 12.138 32.1334H7.39901V38.1924V38.6147H6.97579H6.16345H5.73998V38.1924V30.8771V30.4548H6.16345H12.138C13.334 30.4548 14.4089 30.0658 15.1654 29.3631C15.8699 28.7085 16.303 27.7704 16.303 26.6115C16.303 25.4342 15.8818 24.4921 15.18 23.8402C14.4349 23.1472 13.3644 22.768 12.138 22.768H7.00012H6.16345H1.65915V42.3454H20.1688L22.271 36.915L28.7231 20.2343L28.8276 19.9641H29.1172ZM25.9205 32.1088L23.9423 37.2183L21.959 42.3454H38.2788V32.1088H37.4546H34.2531H33.3672H29.0903H25.9205ZM39.9378 30.8771V31.6871V42.7674V43.5773V44H39.5144H38.7024H1.23594H0.423595H0V43.5773V42.7674V1.23165V0.421995V1.39995e-06H0.423595H1.23594H38.7024H39.5144H39.9378V0.421995V1.23165V30.8771ZM29.499 22.8654L26.5607 30.4548H32.4375L29.499 22.8654Z" fill="#2A324B"/>
    <path d="M73.4138 25.9146L73.385 5.79355H72.3761L63.1487 21.6963L53.9212 5.79355H52.8838V25.9146H54.0665V8.14222L62.8484 23.2046H63.4194L72.1999 8.08456L72.2296 25.9146H73.4138ZM80.8226 25.9146H82.0348V5.79355H80.8226V25.9146ZM104.934 25.9146L99.8629 18.8366L100.049 18.781C101.551 18.3347 102.732 17.5567 103.532 16.4909C104.32 15.441 104.743 14.1073 104.743 12.5318C104.743 10.4214 103.988 8.73949 102.606 7.58643C101.214 6.42481 99.1819 5.79355 96.6405 5.79355H89.4439V25.9146H90.6561V19.2414H96.6405C96.9886 19.2414 97.3213 19.2269 97.6457 19.2017C97.975 19.1764 98.2934 19.1403 98.6092 19.0975L98.6919 19.086L103.579 25.9146H104.934ZM90.6561 18.0687V6.85671H96.6405C98.8526 6.85671 100.556 7.36432 101.714 8.31785C102.892 9.28886 103.501 10.7154 103.501 12.5318C103.501 14.3375 102.89 15.7663 101.706 16.7411C100.549 17.6943 98.8482 18.2073 96.6405 18.2073H90.6561V18.0687ZM125.72 25.9146H127.022L117.74 5.79355H116.426L107.144 25.9146H108.445L111.047 20.1738H123.09L125.72 25.9146ZM111.594 19.0024L117.068 6.95208C118.932 11.0342 120.796 15.1167 122.662 19.1982H111.505L111.594 19.0024Z" fill="#2A324B"/>
    <path d="M53.8477 38.8702V33.9702H55.8427C56.3653 33.9702 56.8227 34.0752 57.2147 34.2852C57.6113 34.4906 57.9193 34.7776 58.1387 35.1462C58.358 35.5149 58.4677 35.9396 58.4677 36.4202C58.4677 36.9009 58.358 37.3256 58.1387 37.6942C57.9193 38.0629 57.6113 38.3522 57.2147 38.5622C56.8227 38.7676 56.3653 38.8702 55.8427 38.8702H53.8477ZM54.3657 38.4222H55.8147C56.2487 38.4222 56.6243 38.3382 56.9417 38.1702C57.2637 37.9976 57.5133 37.7619 57.6907 37.4632C57.868 37.1599 57.9567 36.8122 57.9567 36.4202C57.9567 36.0236 57.868 35.6759 57.6907 35.3772C57.5133 35.0786 57.2637 34.8452 56.9417 34.6772C56.6243 34.5046 56.2487 34.4182 55.8147 34.4182H54.3657V38.4222Z" fill="#2A324B"/>
    <path d="M61.4929 36.1612H64.0829V36.6022H61.4929V36.1612ZM61.5489 38.4222H64.4959V38.8702H61.0309V33.9702H64.3909V34.4182H61.5489V38.4222Z" fill="#2A324B"/>
    <path d="M68.4381 38.8702L66.2681 33.9702H66.8281L68.8581 38.5832H68.5501L70.5941 33.9702H71.1191L68.9491 38.8702H68.4381Z" fill="#2A324B"/>
    <path d="M73.6923 36.1612H76.2823V36.6022H73.6923V36.1612ZM73.7483 38.4222H76.6953V38.8702H73.2303V33.9702H76.5903V34.4182H73.7483V38.4222Z" fill="#2A324B"/>
    <path d="M79.3129 38.8702V33.9702H79.8309V38.4222H82.5749V38.8702H79.3129Z" fill="#2A324B"/>
    <path d="M86.8813 38.9122C86.5126 38.9122 86.1696 38.8516 85.8523 38.7302C85.5396 38.6042 85.2666 38.4292 85.0333 38.2052C84.8046 37.9766 84.6249 37.7129 84.4943 37.4142C84.3683 37.1109 84.3053 36.7796 84.3053 36.4202C84.3053 36.0609 84.3683 35.7319 84.4943 35.4332C84.6249 35.1299 84.8046 34.8662 85.0333 34.6422C85.2666 34.4136 85.5396 34.2386 85.8523 34.1172C86.1649 33.9912 86.5079 33.9282 86.8813 33.9282C87.2499 33.9282 87.5906 33.9912 87.9033 34.1172C88.2159 34.2386 88.4866 34.4112 88.7153 34.6352C88.9486 34.8592 89.1283 35.1229 89.2543 35.4262C89.3849 35.7296 89.4503 36.0609 89.4503 36.4202C89.4503 36.7796 89.3849 37.1109 89.2543 37.4142C89.1283 37.7176 88.9486 37.9812 88.7153 38.2052C88.4866 38.4292 88.2159 38.6042 87.9033 38.7302C87.5906 38.8516 87.2499 38.9122 86.8813 38.9122ZM86.8813 38.4502C87.1753 38.4502 87.4459 38.4012 87.6933 38.3032C87.9453 38.2006 88.1623 38.0582 88.3443 37.8762C88.5309 37.6896 88.6756 37.4749 88.7783 37.2322C88.8809 36.9849 88.9323 36.7142 88.9323 36.4202C88.9323 36.1262 88.8809 35.8579 88.7783 35.6152C88.6756 35.3679 88.5309 35.1532 88.3443 34.9712C88.1623 34.7846 87.9453 34.6422 87.6933 34.5442C87.4459 34.4416 87.1753 34.3902 86.8813 34.3902C86.5873 34.3902 86.3143 34.4416 86.0623 34.5442C85.8103 34.6422 85.5909 34.7846 85.4043 34.9712C85.2223 35.1532 85.0776 35.3679 84.9703 35.6152C84.8676 35.8579 84.8163 36.1262 84.8163 36.4202C84.8163 36.7096 84.8676 36.9779 84.9703 37.2252C85.0776 37.4726 85.2223 37.6896 85.4043 37.8762C85.5909 38.0582 85.8103 38.2006 86.0623 38.3032C86.3143 38.4012 86.5873 38.4502 86.8813 38.4502Z" fill="#2A324B"/>
    <path d="M92.0113 38.8702V33.9702H93.8453C94.2607 33.9702 94.6177 34.0379 94.9163 34.1732C95.215 34.3039 95.4437 34.4952 95.6023 34.7472C95.7657 34.9946 95.8473 35.2956 95.8473 35.6502C95.8473 35.9956 95.7657 36.2942 95.6023 36.5462C95.4437 36.7936 95.215 36.9849 94.9163 37.1202C94.6177 37.2556 94.2607 37.3232 93.8453 37.3232H92.2983L92.5293 37.0782V38.8702H92.0113ZM92.5293 37.1202L92.2983 36.8682H93.8313C94.3213 36.8682 94.6923 36.7632 94.9443 36.5532C95.201 36.3386 95.3293 36.0376 95.3293 35.6502C95.3293 35.2582 95.201 34.9549 94.9443 34.7402C94.6923 34.5256 94.3213 34.4182 93.8313 34.4182H92.2983L92.5293 34.1732V37.1202Z" fill="#2A324B"/>
    <path d="M98.3674 38.8702V33.9702H98.7944L101.034 37.7922H100.81L103.029 33.9702H103.456V38.8702H102.959V34.7472H103.078L101.034 38.2472H100.789L98.7314 34.7472H98.8644V38.8702H98.3674Z" fill="#2A324B"/>
    <path d="M106.915 36.1612H109.505V36.6022H106.915V36.1612ZM106.971 38.4222H109.918V38.8702H106.453V33.9702H109.813V34.4182H106.971V38.4222Z" fill="#2A324B"/>
    <path d="M112.536 38.8702V33.9702H112.963L116.344 38.2262H116.12V33.9702H116.631V38.8702H116.204L112.83 34.6142H113.054V38.8702H112.536Z" fill="#2A324B"/>
    <path d="M120.582 38.8702V34.4182H118.86V33.9702H122.822V34.4182H121.1V38.8702H120.582Z" fill="#2A324B"/>
    <path d="M126.325 38.9122C125.961 38.9122 125.611 38.8539 125.275 38.7372C124.944 38.6159 124.687 38.4619 124.505 38.2752L124.708 37.8762C124.881 38.0442 125.112 38.1866 125.401 38.3032C125.695 38.4152 126.003 38.4712 126.325 38.4712C126.633 38.4712 126.883 38.4339 127.074 38.3592C127.27 38.2799 127.413 38.1749 127.501 38.0442C127.595 37.9136 127.641 37.7689 127.641 37.6102C127.641 37.4189 127.585 37.2649 127.473 37.1482C127.366 37.0316 127.224 36.9406 127.046 36.8752C126.869 36.8052 126.673 36.7446 126.458 36.6932C126.244 36.6419 126.029 36.5882 125.814 36.5322C125.6 36.4716 125.401 36.3922 125.219 36.2942C125.042 36.1962 124.897 36.0679 124.785 35.9092C124.678 35.7459 124.624 35.5336 124.624 35.2722C124.624 35.0296 124.687 34.8079 124.813 34.6072C124.944 34.4019 125.142 34.2386 125.408 34.1172C125.674 33.9912 126.015 33.9282 126.43 33.9282C126.706 33.9282 126.979 33.9679 127.249 34.0472C127.52 34.1219 127.753 34.2269 127.949 34.3622L127.774 34.7752C127.564 34.6352 127.34 34.5326 127.102 34.4672C126.869 34.4019 126.643 34.3692 126.423 34.3692C126.129 34.3692 125.887 34.4089 125.695 34.4882C125.504 34.5676 125.362 34.6749 125.268 34.8102C125.18 34.9409 125.135 35.0902 125.135 35.2582C125.135 35.4496 125.189 35.6036 125.296 35.7202C125.408 35.8369 125.553 35.9279 125.73 35.9932C125.912 36.0586 126.111 36.1169 126.325 36.1682C126.54 36.2196 126.752 36.2756 126.962 36.3362C127.177 36.3969 127.373 36.4762 127.55 36.5742C127.732 36.6676 127.877 36.7936 127.984 36.9522C128.096 37.1109 128.152 37.3186 128.152 37.5752C128.152 37.8132 128.087 38.0349 127.956 38.2402C127.826 38.4409 127.625 38.6042 127.354 38.7302C127.088 38.8516 126.745 38.9122 126.325 38.9122Z" fill="#2A324B"/>
    </svg>
    