<svg width="135" height="44" viewBox="0 0 135 44" fill="none" xmlns="http://www.w3.org/2000/svg">
    <path fill-rule="evenodd" clip-rule="evenodd"
        d="M29.1172 19.9641H29.8813H30.1706L30.2754 20.2343L34.2284 30.4548H38.2788V1.65437H30.3289V16.4478V16.8697H29.9053H29.0929H28.6693V16.4478V1.65437H1.65915V21.0901H5.74022V4.96301V4.54029H6.16379H6.3788H6.59381L6.7213 4.71687L14.3829 15.3449L22.0222 4.71687L22.149 4.54029H22.3667H22.5577H22.9809V4.96301V24.6246V25.0466H22.5577H21.7213H21.2978V24.6246V8.63598L14.8244 17.6477L14.6973 17.8239H14.4802H14.2889H14.0739L13.9464 17.6477L7.4237 8.6268V21.0901H12.138C13.8045 21.0901 15.2976 21.6571 16.3645 22.6514C17.4012 23.6174 18.0337 24.9799 18.0337 26.6115C18.0337 27.8753 17.6632 28.9815 17.0152 29.8652C16.4412 30.6469 15.6522 31.2506 14.7111 31.6304L18.3126 37.9868L18.6682 38.6147H17.9451H16.9892H16.7445L16.6221 38.3984L13.0338 32.0686C12.9402 32.0805 12.8444 32.0908 12.7482 32.1C12.5389 32.1198 12.3327 32.1334 12.138 32.1334H7.39901V38.1924V38.6147H6.97579H6.16345H5.73998V38.1924V30.8771V30.4548H6.16345H12.138C13.334 30.4548 14.4089 30.0658 15.1654 29.3631C15.8699 28.7085 16.303 27.7704 16.303 26.6115C16.303 25.4342 15.8818 24.4921 15.18 23.8402C14.4349 23.1472 13.3644 22.768 12.138 22.768H7.00012H6.16345H1.65915V42.3454H20.1688L22.271 36.915L28.7231 20.2343L28.8276 19.9641H29.1172ZM25.9205 32.1088L23.9423 37.2183L21.959 42.3454H38.2788V32.1088H37.4546H34.2531H33.3672H29.0903H25.9205ZM39.9378 30.8771V31.6871V42.7674V43.5773V44H39.5144H38.7024H1.23594H0.423595H0V43.5773V42.7674V1.23166V0.421997V0H0.423595H1.23594H38.7024H39.5144H39.9378V0.421997V1.23166V30.8771ZM29.499 22.8654L26.5607 30.4548H32.4375L29.499 22.8654Z"
        fill="#fff" />
    <path
        d="M73.4138 25.9146L73.385 5.79355H72.3761L63.1487 21.6963L53.9212 5.79355H52.8838V25.9146H54.0665V8.14222L62.8484 23.2046H63.4194L72.1999 8.08456L72.2296 25.9146H73.4138ZM80.8226 25.9146H82.0348V5.79355H80.8226V25.9146ZM104.934 25.9146L99.8629 18.8366L100.049 18.781C101.551 18.3347 102.731 17.5567 103.532 16.4909C104.32 15.441 104.743 14.1073 104.743 12.5318C104.743 10.4214 103.988 8.73949 102.606 7.58643C101.214 6.42481 99.1819 5.79355 96.6405 5.79355H89.4439V25.9146H90.6561V19.2414H96.6405C96.9886 19.2414 97.3213 19.2269 97.6457 19.2017C97.975 19.1764 98.2934 19.1403 98.6092 19.0975L98.6919 19.086L103.579 25.9146H104.934ZM90.6561 18.0687V6.85671H96.6405C98.8526 6.85671 100.556 7.36432 101.714 8.31785C102.892 9.28886 103.501 10.7154 103.501 12.5318C103.501 14.3375 102.89 15.7663 101.706 16.7411C100.549 17.6943 98.8482 18.2073 96.6405 18.2073H90.6561V18.0687ZM125.72 25.9146H127.022L117.74 5.79355H116.426L107.144 25.9146H108.445L111.047 20.1738H123.09L125.72 25.9146ZM111.594 19.0024L117.068 6.95208C118.932 11.0342 120.796 15.1167 122.662 19.1982H111.505L111.594 19.0024Z"
        fill="#fff" />
    <path
        d="M53.8478 38.8701V33.9701H55.8428C56.3655 33.9701 56.8228 34.0751 57.2148 34.2851C57.6115 34.4905 57.9195 34.7775 58.1388 35.1461C58.3581 35.5148 58.4678 35.9395 58.4678 36.4201C58.4678 36.9008 58.3581 37.3255 58.1388 37.6941C57.9195 38.0628 57.6115 38.3521 57.2148 38.5621C56.8228 38.7675 56.3655 38.8701 55.8428 38.8701H53.8478ZM54.3658 38.4221H55.8148C56.2488 38.4221 56.6245 38.3381 56.9418 38.1701C57.2638 37.9975 57.5135 37.7618 57.6908 37.4631C57.8681 37.1598 57.9568 36.8121 57.9568 36.4201C57.9568 36.0235 57.8681 35.6758 57.6908 35.3771C57.5135 35.0785 57.2638 34.8451 56.9418 34.6771C56.6245 34.5045 56.2488 34.4181 55.8148 34.4181H54.3658V38.4221ZM61.493 36.1611H64.083V36.6021H61.493V36.1611ZM61.549 38.4221H64.496V38.8701H61.031V33.9701H64.391V34.4181H61.549V38.4221ZM68.4383 38.8701L66.2683 33.9701H66.8283L68.8583 38.5831H68.5503L70.5943 33.9701H71.1193L68.9493 38.8701H68.4383ZM73.6924 36.1611H76.2824V36.6021H73.6924V36.1611ZM73.7484 38.4221H76.6954V38.8701H73.2304V33.9701H76.5904V34.4181H73.7484V38.4221ZM79.313 38.8701V33.9701H79.831V38.4221H82.575V38.8701H79.313ZM86.8814 38.9121C86.5127 38.9121 86.1697 38.8515 85.8524 38.7301C85.5397 38.6041 85.2667 38.4291 85.0334 38.2051C84.8047 37.9765 84.6251 37.7128 84.4944 37.4141C84.3684 37.1108 84.3054 36.7795 84.3054 36.4201C84.3054 36.0608 84.3684 35.7318 84.4944 35.4331C84.6251 35.1298 84.8047 34.8661 85.0334 34.6421C85.2667 34.4135 85.5397 34.2385 85.8524 34.1171C86.1651 33.9911 86.5081 33.9281 86.8814 33.9281C87.2501 33.9281 87.5907 33.9911 87.9034 34.1171C88.2161 34.2385 88.4867 34.4111 88.7154 34.6351C88.9487 34.8591 89.1284 35.1228 89.2544 35.4261C89.3851 35.7295 89.4504 36.0608 89.4504 36.4201C89.4504 36.7795 89.3851 37.1108 89.2544 37.4141C89.1284 37.7175 88.9487 37.9811 88.7154 38.2051C88.4867 38.4291 88.2161 38.6041 87.9034 38.7301C87.5907 38.8515 87.2501 38.9121 86.8814 38.9121ZM86.8814 38.4501C87.1754 38.4501 87.4461 38.4011 87.6934 38.3031C87.9454 38.2005 88.1624 38.0581 88.3444 37.8761C88.5311 37.6895 88.6757 37.4748 88.7784 37.2321C88.8811 36.9848 88.9324 36.7141 88.9324 36.4201C88.9324 36.1261 88.8811 35.8578 88.7784 35.6151C88.6757 35.3678 88.5311 35.1531 88.3444 34.9711C88.1624 34.7845 87.9454 34.6421 87.6934 34.5441C87.4461 34.4415 87.1754 34.3901 86.8814 34.3901C86.5874 34.3901 86.3144 34.4415 86.0624 34.5441C85.8104 34.6421 85.5911 34.7845 85.4044 34.9711C85.2224 35.1531 85.0777 35.3678 84.9704 35.6151C84.8677 35.8578 84.8164 36.1261 84.8164 36.4201C84.8164 36.7095 84.8677 36.9778 84.9704 37.2251C85.0777 37.4725 85.2224 37.6895 85.4044 37.8761C85.5911 38.0581 85.8104 38.2005 86.0624 38.3031C86.3144 38.4011 86.5874 38.4501 86.8814 38.4501ZM92.0115 38.8701V33.9701H93.8455C94.2608 33.9701 94.6178 34.0378 94.9165 34.1731C95.2151 34.3038 95.4438 34.4951 95.6025 34.7471C95.7658 34.9945 95.8475 35.2955 95.8475 35.6501C95.8475 35.9955 95.7658 36.2941 95.6025 36.5461C95.4438 36.7935 95.2151 36.9848 94.9165 37.1201C94.6178 37.2555 94.2608 37.3231 93.8455 37.3231H92.2985L92.5295 37.0781V38.8701H92.0115ZM92.5295 37.1201L92.2985 36.8681H93.8315C94.3215 36.8681 94.6925 36.7631 94.9445 36.5531C95.2011 36.3385 95.3295 36.0375 95.3295 35.6501C95.3295 35.2581 95.2011 34.9548 94.9445 34.7401C94.6925 34.5255 94.3215 34.4181 93.8315 34.4181H92.2985L92.5295 34.1731V37.1201ZM98.3675 38.8701V33.9701H98.7945L101.035 37.7921H100.811L103.03 33.9701H103.457V38.8701H102.96V34.7471H103.079L101.035 38.2471H100.79L98.7315 34.7471H98.8645V38.8701H98.3675ZM106.915 36.1611H109.505V36.6021H106.915V36.1611ZM106.971 38.4221H109.918V38.8701H106.453V33.9701H109.813V34.4181H106.971V38.4221ZM112.536 38.8701V33.9701H112.963L116.344 38.2261H116.12V33.9701H116.631V38.8701H116.204L112.83 34.6141H113.054V38.8701H112.536ZM120.582 38.8701V34.4181H118.86V33.9701H122.822V34.4181H121.1V38.8701H120.582ZM126.325 38.9121C125.961 38.9121 125.611 38.8538 125.275 38.7371C124.944 38.6158 124.687 38.4618 124.505 38.2751L124.708 37.8761C124.881 38.0441 125.112 38.1865 125.401 38.3031C125.695 38.4151 126.003 38.4711 126.325 38.4711C126.633 38.4711 126.883 38.4338 127.074 38.3591C127.27 38.2798 127.413 38.1748 127.501 38.0441C127.595 37.9135 127.641 37.7688 127.641 37.6101C127.641 37.4188 127.585 37.2648 127.473 37.1481C127.366 37.0315 127.224 36.9405 127.046 36.8751C126.869 36.8051 126.673 36.7445 126.458 36.6931C126.244 36.6418 126.029 36.5881 125.814 36.5321C125.6 36.4715 125.401 36.3921 125.219 36.2941C125.042 36.1961 124.897 36.0678 124.785 35.9091C124.678 35.7458 124.624 35.5335 124.624 35.2721C124.624 35.0295 124.687 34.8078 124.813 34.6071C124.944 34.4018 125.142 34.2385 125.408 34.1171C125.674 33.9911 126.015 33.9281 126.43 33.9281C126.706 33.9281 126.979 33.9678 127.249 34.0471C127.52 34.1218 127.753 34.2268 127.949 34.3621L127.774 34.7751C127.564 34.6351 127.34 34.5325 127.102 34.4671C126.869 34.4018 126.643 34.3691 126.423 34.3691C126.129 34.3691 125.887 34.4088 125.695 34.4881C125.504 34.5675 125.362 34.6748 125.268 34.8101C125.18 34.9408 125.135 35.0901 125.135 35.2581C125.135 35.4495 125.189 35.6035 125.296 35.7201C125.408 35.8368 125.553 35.9278 125.73 35.9931C125.912 36.0585 126.111 36.1168 126.325 36.1681C126.54 36.2195 126.752 36.2755 126.962 36.3361C127.177 36.3968 127.373 36.4761 127.55 36.5741C127.732 36.6675 127.877 36.7935 127.984 36.9521C128.096 37.1108 128.152 37.3185 128.152 37.5751C128.152 37.8131 128.087 38.0348 127.956 38.2401C127.826 38.4408 127.625 38.6041 127.354 38.7301C127.088 38.8515 126.745 38.9121 126.325 38.9121Z"
        fill="#fff" />
</svg>